<?xml version="1.0" encoding="utf-8"?>
<!-- Generator: Adobe Illustrator 16.0.0, SVG Export Plug-In . SVG Version: 6.00 Build 0)  -->
<!DOCTYPE svg PUBLIC "-//W3C//DTD SVG 1.1//EN" "http://www.w3.org/Graphics/SVG/1.1/DTD/svg11.dtd">
<svg version="1.1" id="Layer_1" xmlns="http://www.w3.org/2000/svg" xmlns:xlink="http://www.w3.org/1999/xlink" x="0px" y="0px"
	 width="1190.551px" height="841.89px" viewBox="0 0 1190.551 841.89" enable-background="new 0 0 1190.551 841.89"
	 xml:space="preserve">
<path fill="#3FE0EE" d="M559.042,653.789c-2.218-2.635-447.888-467.27-460.447-480.495c-0.959-1.009-2.882-1.872-2.266-3.422
	c0.664-1.601,2.634-0.862,3.989-0.862c41.622-0.025,83.244,0,124.864-0.099c3.94,0,6.748,1.354,9.407,4.138
	c31.132,32.533,352.109,366.589,358.292,373.117c1.674,1.822,344.397-353.338,363.117-373.117c2.809-2.979,5.858-4.163,9.926-4.138
	c41.272,0.099,82.576,0.074,123.854,0.099c1.525,0,3.742-0.862,4.432,0.887c0.689,1.699-1.502,2.66-2.561,3.768
	c-23.939,24.974-447.986,467.17-460.152,480.125C607.336,653.789,583.177,653.789,559.042,653.789z"/>
</svg>
