<?xml version="1.0" encoding="utf-8"?>
<!-- Generator: Adobe Illustrator 16.0.0, SVG Export Plug-In . SVG Version: 6.00 Build 0)  -->
<!DOCTYPE svg PUBLIC "-//W3C//DTD SVG 1.1//EN" "http://www.w3.org/Graphics/SVG/1.1/DTD/svg11.dtd">
<svg version="1.1" id="Layer_1" xmlns="http://www.w3.org/2000/svg" xmlns:xlink="http://www.w3.org/1999/xlink" x="0px" y="0px"
	 width="1190.55px" height="841.89px" viewBox="0 0 1190.55 841.89" style="enable-background:new 0 0 1190.55 841.89;"
	 xml:space="preserve">
<style type="text/css">
<![CDATA[
	.st0{fill-rule:evenodd;clip-rule:evenodd;fill:url(#SVGID_1_);}
]]>
</style>
<linearGradient id="SVGID_1_" gradientUnits="userSpaceOnUse" x1="645.3535" y1="574.9463" x2="645.3535" y2="198.6824" gradientTransform="matrix(-4.371139e-08 -1 1 -4.371139e-08 243.7124 1066.2983)">
	<stop  offset="0" style="stop-color:#CEA059"/>
	<stop  offset="1" style="stop-color:#F7D696"/>
</linearGradient>
<path class="st0" d="M826.403,449.338c-2.065,1.736-366.15,350.963-376.514,360.805c-0.791,0.752-1.467,2.258-2.682,1.774
	c-1.254-0.52-0.675-2.063-0.675-3.125c-0.02-32.615,0-65.229-0.078-97.843c0-3.089,1.062-5.288,3.242-7.372
	c25.493-24.395,287.257-275.912,292.372-280.756c1.428-1.312-276.875-269.869-292.372-284.537c-2.334-2.2-3.262-4.592-3.242-7.777
	c0.078-32.343,0.058-64.707,0.078-97.053c0-1.195-0.676-2.932,0.694-3.473c1.332-0.54,2.084,1.177,2.953,2.006
	c19.569,18.759,366.072,351.04,376.224,360.573C826.403,411.494,826.403,430.425,826.403,449.338z"/>
</svg>
