<?xml version="1.0" encoding="utf-8"?>
<!-- Generator: Adobe Illustrator 16.0.0, SVG Export Plug-In . SVG Version: 6.00 Build 0)  -->
<!DOCTYPE svg PUBLIC "-//W3C//DTD SVG 1.1//EN" "http://www.w3.org/Graphics/SVG/1.1/DTD/svg11.dtd">
<svg version="1.1" id="Layer_1" xmlns="http://www.w3.org/2000/svg" xmlns:xlink="http://www.w3.org/1999/xlink" x="0px" y="0px"
	 width="1190.55px" height="841.89px" viewBox="0 0 1190.55 841.89" style="enable-background:new 0 0 1190.55 841.89;"
	 xml:space="preserve">
<style type="text/css">
<![CDATA[
	.st0{fill-rule:evenodd;clip-rule:evenodd;fill:url(#SVGID_1_);}
]]>
</style>
<linearGradient id="SVGID_1_" gradientUnits="userSpaceOnUse" x1="655.0059" y1="643.9053" x2="655.0059" y2="163.7301" gradientTransform="matrix(-4.371139e-08 -1 1 -4.371139e-08 243.7124 1066.2983)">
	<stop  offset="0" style="stop-color:#CEA059"/>
	<stop  offset="1" style="stop-color:#F7D696"/>
</linearGradient>
<path class="st0" d="M897.501,447.527c-2.636,2.216-467.269,447.887-480.495,460.447c-1.009,0.96-1.872,2.882-3.422,2.265
	c-1.601-0.663-0.862-2.634-0.862-3.988c-0.025-41.622,0-83.244-0.099-124.864c0-3.941,1.354-6.748,4.138-9.408
	c32.533-31.131,366.589-352.109,373.115-358.291c1.822-1.674-353.338-344.398-373.115-363.117c-2.979-2.808-4.163-5.86-4.138-9.925
	c0.099-41.275,0.074-82.577,0.099-123.855c0-1.525-0.862-3.742,0.887-4.432c1.699-0.689,2.66,1.502,3.768,2.561
	c24.974,23.939,467.17,447.986,480.125,460.152C897.501,399.231,897.501,423.391,897.501,447.527z"/>
</svg>
