<?xml version="1.0" encoding="utf-8"?>
<!-- Generator: Adobe Illustrator 16.0.0, SVG Export Plug-In . SVG Version: 6.00 Build 0)  -->
<!DOCTYPE svg PUBLIC "-//W3C//DTD SVG 1.1//EN" "http://www.w3.org/Graphics/SVG/1.1/DTD/svg11.dtd">
<svg version="1.1" id="Layer_1" xmlns="http://www.w3.org/2000/svg" xmlns:xlink="http://www.w3.org/1999/xlink" x="0px" y="0px"
	 width="1190.55px" height="841.89px" viewBox="0 0 1190.55 841.89" style="enable-background:new 0 0 1190.55 841.89;"
	 xml:space="preserve">
<style type="text/css">
<![CDATA[
	.st0{fill-rule:evenodd;clip-rule:evenodd;fill:url(#SVGID_1_);}
]]>
</style>
<linearGradient id="SVGID_1_" gradientUnits="userSpaceOnUse" x1="595.4009" y1="642.7266" x2="595.4009" y2="105.2028">
	<stop  offset="0" style="stop-color:#CEA059"/>
	<stop  offset="1" style="stop-color:#F7D696"/>
</linearGradient>
<path class="st0" d="M554.838,653.789c-2.48-2.95-501.379-523.077-515.44-537.882c-1.074-1.129-3.225-2.095-2.535-3.831
	c0.743-1.792,2.949-0.965,4.465-0.965c46.593-0.028,93.186,0,139.777-0.11c4.411,0,7.554,1.516,10.532,4.632
	c34.849,36.418,394.162,410.372,401.082,417.678c1.875,2.04,385.531-395.54,406.486-417.678c3.143-3.335,6.561-4.66,11.11-4.632
	c46.205,0.11,92.439,0.083,138.647,0.11c1.708,0,4.189-0.965,4.961,0.993c0.771,1.902-1.682,2.977-2.866,4.217
	c-26.799,27.957-501.49,522.966-515.109,537.468C608.902,653.789,581.857,653.789,554.838,653.789z"/>
</svg>
