<?xml version="1.0" encoding="utf-8"?>
<!-- Generator: Adobe Illustrator 16.0.0, SVG Export Plug-In . SVG Version: 6.00 Build 0)  -->
<!DOCTYPE svg PUBLIC "-//W3C//DTD SVG 1.1//EN" "http://www.w3.org/Graphics/SVG/1.1/DTD/svg11.dtd">
<svg version="1.1" id="Layer_1" xmlns="http://www.w3.org/2000/svg" xmlns:xlink="http://www.w3.org/1999/xlink" x="0px" y="0px"
	 width="1190.55px" height="841.89px" viewBox="0 0 1190.55 841.89" style="enable-background:new 0 0 1190.55 841.89;"
	 xml:space="preserve">
<style type="text/css">
<![CDATA[
	.st0{fill-rule:evenodd;clip-rule:evenodd;fill:url(#SVGID_1_);}
]]>
</style>
<linearGradient id="SVGID_1_" gradientUnits="userSpaceOnUse" x1="595.2754" y1="736.0713" x2="595.2754" y2="203.4911">
	<stop  offset="0" style="stop-color:#CEA059"/>
	<stop  offset="1" style="stop-color:#F7D696"/>
</linearGradient>
<path class="st0" d="M555.072,747.032c-2.434-2.909-496.754-518.269-510.71-532.959c-1.058-1.113-3.194-2.06-2.487-3.799
	c0.714-1.759,2.902-0.935,4.425-0.936c46.157-0.041,92.313,0.008,138.47-0.099c4.358-0.01,7.498,1.486,10.456,4.58
	c34.519,36.085,390.531,406.615,397.366,413.847c1.889,1.999,382.014-391.906,402.775-413.855c3.126-3.305,6.51-4.583,11.007-4.573
	c45.794,0.11,91.59,0.057,137.385,0.105c1.692,0.002,4.161-0.949,4.92,0.983c0.735,1.87-1.662,2.943-2.848,4.18
	c-26.539,27.695-496.878,518.174-510.39,532.527C608.651,747.032,581.861,747.032,555.072,747.032z"/>
</svg>
