<?xml version="1.0" encoding="utf-8"?>
<!-- Generator: Adobe Illustrator 16.0.0, SVG Export Plug-In . SVG Version: 6.00 Build 0)  -->
<!DOCTYPE svg PUBLIC "-//W3C//DTD SVG 1.1//EN" "http://www.w3.org/Graphics/SVG/1.1/DTD/svg11.dtd">
<svg version="1.1" id="Layer_1" xmlns="http://www.w3.org/2000/svg" xmlns:xlink="http://www.w3.org/1999/xlink" x="0px" y="0px"
	 width="1190.55px" height="841.89px" viewBox="0 0 1190.55 841.89" style="enable-background:new 0 0 1190.55 841.89;"
	 xml:space="preserve">
<style type="text/css">
<![CDATA[
	.st0{fill-rule:evenodd;clip-rule:evenodd;fill:url(#SVGID_1_);}
]]>
</style>
<linearGradient id="SVGID_1_" gradientUnits="userSpaceOnUse" x1="655.0049" y1="643.9062" x2="655.0049" y2="163.7306">
	<stop  offset="0" style="stop-color:#CEA059"/>
	<stop  offset="1" style="stop-color:#F7D696"/>
</linearGradient>
<path class="st0" d="M618.771,653.789c-2.216-2.636-447.887-467.27-460.447-480.495c-0.959-1.009-2.881-1.872-2.265-3.422
	c0.664-1.601,2.634-0.862,3.989-0.862c41.622-0.025,83.244,0,124.864-0.099c3.941,0,6.748,1.354,9.408,4.138
	c31.131,32.533,352.109,366.589,358.291,373.116c1.674,1.822,344.398-353.339,363.117-373.116c2.808-2.979,5.86-4.163,9.925-4.138
	c41.275,0.099,82.577,0.074,123.855,0.099c1.525,0,3.742-0.862,4.432,0.887c0.689,1.699-1.502,2.66-2.561,3.768
	c-23.939,24.974-447.986,467.17-460.152,480.125C667.066,653.789,642.907,653.789,618.771,653.789z"/>
</svg>
