<?xml version="1.0" encoding="utf-8"?>
<!-- Generator: Adobe Illustrator 16.0.0, SVG Export Plug-In . SVG Version: 6.00 Build 0)  -->
<!DOCTYPE svg PUBLIC "-//W3C//DTD SVG 1.1//EN" "http://www.w3.org/Graphics/SVG/1.1/DTD/svg11.dtd">
<svg version="1.1" id="Layer_1" xmlns="http://www.w3.org/2000/svg" xmlns:xlink="http://www.w3.org/1999/xlink" x="0px" y="0px"
	 width="1190.551px" height="841.89px" viewBox="0 0 1190.551 841.89" enable-background="new 0 0 1190.551 841.89"
	 xml:space="preserve">
<g>
	<linearGradient id="SVGID_1_" gradientUnits="userSpaceOnUse" x1="155.5535" y1="432.2925" x2="155.5535" y2="148.5501">
		<stop  offset="0" style="stop-color:#CEA058"/>
		<stop  offset="1" style="stop-color:#F7D696"/>
	</linearGradient>
	<path fill="url(#SVGID_1_)" d="M46.649,324.711c0,30.158,10.609,55.849,31.833,77.07c21.22,21.227,46.913,31.833,77.073,31.833
		c30.158,0,55.846-10.606,77.07-31.833c21.22-21.222,31.833-46.912,31.833-77.07V157.169h-8.377v167.542
		c0,27.702-9.833,51.386-29.488,71.036c-19.66,19.66-43.341,29.49-71.038,29.49c-27.704,0-51.384-9.83-71.041-29.49
		c-19.66-19.65-29.488-43.334-29.488-71.036"/>
	<linearGradient id="SVGID_2_" gradientUnits="userSpaceOnUse" x1="423.6189" y1="432.2925" x2="423.6189" y2="148.5501">
		<stop  offset="0" style="stop-color:#CEA058"/>
		<stop  offset="1" style="stop-color:#F7D696"/>
	</linearGradient>
	<path fill="url(#SVGID_2_)" d="M314.715,324.711V157.169h8.377v167.542c0,27.702,9.828,51.386,29.488,71.036
		c19.654,19.66,43.337,29.49,71.041,29.49c27.694,0,51.378-9.83,71.038-29.49c19.656-19.65,29.488-43.334,29.488-71.036V157.169
		h8.377v167.542c0,30.158-10.613,55.849-31.833,77.07c-21.225,21.227-46.912,31.833-77.07,31.833
		c-30.158,0-55.85-10.606-77.07-31.833C325.325,380.56,314.715,354.87,314.715,324.711z"/>
	<linearGradient id="SVGID_3_" gradientUnits="userSpaceOnUse" x1="696.8787" y1="432.2925" x2="696.8787" y2="148.5501">
		<stop  offset="0" style="stop-color:#CEA058"/>
		<stop  offset="1" style="stop-color:#F7D696"/>
	</linearGradient>
	<path fill="url(#SVGID_3_)" d="M599.534,168.562v265.053h-8.377V157.169h10.725l192.342,265.054V157.169h8.377v276.445h-10.725
		L599.534,168.562z"/>
	<linearGradient id="SVGID_4_" gradientUnits="userSpaceOnUse" x1="999.7937" y1="432.2935" x2="999.7937" y2="148.5508">
		<stop  offset="0" style="stop-color:#CEA058"/>
		<stop  offset="1" style="stop-color:#F7D696"/>
	</linearGradient>
	<path fill="url(#SVGID_4_)" d="M1103.503,191.684c28.594,28.598,42.892,63.112,42.892,103.541
		c0,40.666-14.298,75.286-42.892,103.879c-28.598,28.599-63.11,42.893-103.543,42.893c-40.66,0-75.284-14.294-103.877-42.893
		c-28.599-28.593-42.89-63.213-42.89-103.879c0-40.429,14.291-74.943,42.89-103.541c28.593-28.594,63.217-42.89,103.877-42.89
		C1040.392,148.794,1074.905,163.09,1103.503,191.684z M999.96,157.172c-38.201,0-70.818,13.517-97.845,40.542
		c-27.035,27.034-40.545,59.537-40.545,97.509c0,38.202,13.513,70.82,40.545,97.846c27.026,27.034,59.644,40.546,97.845,40.546
		c37.974,0,70.479-13.512,97.509-40.546c27.027-27.025,40.546-59.644,40.546-97.846c0-37.973-13.521-70.478-40.546-97.509
		C1070.439,170.687,1037.933,157.172,999.96,157.172z"/>
</g>
</svg>
