<?xml version="1.0" encoding="utf-8"?>
<!-- Generator: Adobe Illustrator 16.0.0, SVG Export Plug-In . SVG Version: 6.00 Build 0)  -->
<!DOCTYPE svg PUBLIC "-//W3C//DTD SVG 1.1//EN" "http://www.w3.org/Graphics/SVG/1.1/DTD/svg11.dtd">
<svg version="1.1" id="Layer_1" xmlns="http://www.w3.org/2000/svg" xmlns:xlink="http://www.w3.org/1999/xlink" x="0px" y="0px"
	 width="1190.551px" height="841.89px" viewBox="0 0 1190.551 841.89" enable-background="new 0 0 1190.551 841.89"
	 xml:space="preserve">
<g id="_x39_Pf658.tif">
	<g>
		
			<linearGradient id="SVGID_1_" gradientUnits="userSpaceOnUse" x1="620.5408" y1="748.144" x2="602.5408" y2="-37.8559" gradientTransform="matrix(-4.371139e-08 1 -1 -4.371139e-08 1028.1829 -203.3113)">
			<stop  offset="0" style="stop-color:#CEA058"/>
			<stop  offset="1" style="stop-color:#F7D696"/>
		</linearGradient>
		<path fill-rule="evenodd" clip-rule="evenodd" fill="url(#SVGID_1_)" d="M703.738,12.464c10.557,1.298,21.164,2.27,31.658,3.945
			c72.279,11.544,134.119,43.487,185.098,95.976c44.412,45.729,73.631,99.956,85.521,162.569
			c19.76,104.058-4.363,197.477-72.811,278.435c-47.478,56.155-108.068,91.866-180.061,106.897
			c-83.019,17.334-161.527,4.283-235.011-38.274c-1.297-0.751-2.572-1.538-3.873-2.282c-0.28-0.16-0.626-0.206-2.194-1.557
			c-1.087,1.7-1.907,3.668-3.301,5.062c-60.761,60.86-121.622,121.621-182.301,182.562c-5.984,6.01-12.415,7.725-20.369,5.939
			c-11.028-2.477-20.729-7.771-28.769-15.359c-14.412-13.598-28.475-27.601-42.092-41.994c-7.83-8.277-13.314-18.252-15.797-29.642
			c-1.695-7.774-0.021-14.091,5.844-19.932c60.455-60.222,120.746-120.61,181.11-180.924c1.395-1.394,3.115-2.461,3.61-2.846
			c-9.314-18.428-18.856-35.248-26.531-52.881c-22.472-51.632-31.122-105.911-24.319-161.669
			c14.567-119.402,76.355-206.685,183.417-261.35c37.317-19.054,77.525-28.902,119.369-31.826c1.611-0.112,3.201-0.56,4.801-0.852
			C679.072,12.464,691.406,12.464,703.738,12.464z M466.086,340.096c0.077,120.688,98.018,218.472,218.891,218.541
			c121.193,0.068,218.915-97.684,218.827-218.896c-0.086-120.864-97.969-218.749-218.68-218.684
			C564.182,121.123,466.01,219.294,466.086,340.096z"/>
	</g>
</g>
</svg>
