<?xml version="1.0" encoding="utf-8"?>
<!-- Generator: Adobe Illustrator 16.0.0, SVG Export Plug-In . SVG Version: 6.00 Build 0)  -->
<!DOCTYPE svg PUBLIC "-//W3C//DTD SVG 1.1//EN" "http://www.w3.org/Graphics/SVG/1.1/DTD/svg11.dtd">
<svg version="1.1" id="Layer_1" xmlns="http://www.w3.org/2000/svg" xmlns:xlink="http://www.w3.org/1999/xlink" x="0px" y="0px"
	 width="1190.551px" height="841.89px" viewBox="0 0 1190.551 841.89" enable-background="new 0 0 1190.551 841.89"
	 xml:space="preserve">
<g id="_x39_Pf658.tif">
	<g>
		
			<linearGradient id="SVGID_1_" gradientUnits="userSpaceOnUse" x1="-1359.7009" y1="4291.4907" x2="-1680.788" y2="-9729.3516" gradientTransform="matrix(-4.371139e-08 1 -1 -4.371139e-08 1028.1829 -203.3113)">
			<stop  offset="0" style="stop-color:#CEA058"/>
			<stop  offset="1" style="stop-color:#F7D696"/>
		</linearGradient>
		<path fill-rule="evenodd" clip-rule="evenodd" fill="url(#SVGID_1_)" d="M4294.706-8783.297
			c188.362,23.168,377.599,40.49,564.778,70.367c1289.352,205.912,2392.398,775.672,3301.764,1711.997
			c792.231,815.723,1313.502,1783.115,1525.571,2900.021c352.494,1856.195-77.838,3522.609-1298.773,4966.765
			c-846.899,1001.72-1927.749,1638.702-3212.006,1906.866c-1480.874,309.176-2881.301,76.424-4192.191-682.785
			c-23.059-13.426-45.906-27.389-69.068-40.707c-4.979-2.811-11.153-3.682-39.08-27.819c-19.488,30.415-34.104,65.49-58.897,90.392
			C-267.074,3197.412-1352.799,4281.289-2435.16,5368.316c-106.744,107.281-221.494,137.803-363.316,105.979
			c-196.813-44.17-369.809-138.57-513.249-273.996c-257.007-242.506-507.949-492.363-750.771-749.039
			c-139.76-147.664-237.521-325.637-281.797-528.848c-30.312-138.57-0.431-251.258,104.253-355.516
			c1078.361-1074.248,2153.9-2151.412,3230.64-3227.395c24.897-24.782,55.537-43.841,64.413-50.666
			c-166.179-328.771-336.357-628.756-473.302-943.352c-400.777-921.057-555.152-1889.218-433.797-2883.893
			c259.823-2129.869,1362.104-3686.835,3271.889-4662.025c665.677-339.818,1382.889-515.521,2129.32-567.703
			c28.691-1.949,57.062-9.959,85.635-15.16C3854.739-8783.297,4074.72-8783.297,4294.706-8783.297z M55.423-2938.977
			C56.832-786.057,1803.904,958.205,3960.077,959.392C6121.996,960.693,7865.16-783.02,7863.533-2945.262
			c-1.506-2156.065-1747.49-3902.159-3900.853-3900.974C1805.302-6845.041,54.125-5093.856,55.423-2938.977z"/>
	</g>
</g>
</svg>
