<?xml version="1.0" encoding="utf-8"?>
<!-- Generator: Adobe Illustrator 16.0.0, SVG Export Plug-In . SVG Version: 6.00 Build 0)  -->
<!DOCTYPE svg PUBLIC "-//W3C//DTD SVG 1.1//EN" "http://www.w3.org/Graphics/SVG/1.1/DTD/svg11.dtd">
<svg version="1.1" id="Layer_1" xmlns="http://www.w3.org/2000/svg" xmlns:xlink="http://www.w3.org/1999/xlink" x="0px" y="0px"
	 width="1190.551px" height="841.89px" viewBox="0 0 1190.551 841.89" enable-background="new 0 0 1190.551 841.89"
	 xml:space="preserve">
<g id="_x39_Pf658.tif">
	<g>
		<linearGradient id="SVGID_1_" gradientUnits="userSpaceOnUse" x1="620.5408" y1="748.144" x2="602.5408" y2="-37.8559">
			<stop  offset="0" style="stop-color:#CEA058"/>
			<stop  offset="1" style="stop-color:#F7D696"/>
		</linearGradient>
		<path fill-rule="evenodd" clip-rule="evenodd" fill="url(#SVGID_1_)" d="M215.775,324.445c1.297-10.556,2.269-21.163,3.945-31.658
			c11.544-72.278,43.487-134.119,95.976-185.098c45.729-44.412,99.956-73.631,162.569-85.521
			C582.323,2.408,675.742,26.531,756.7,94.978c56.155,47.478,91.866,108.068,106.897,180.061
			c17.334,83.019,4.283,161.527-38.274,235.012c-0.751,1.297-1.538,2.572-2.282,3.873c-0.16,0.28-0.206,0.626-1.557,2.194
			c1.7,1.087,3.668,1.907,5.062,3.301c60.86,60.761,121.621,121.622,182.562,182.301c6.01,5.984,7.725,12.415,5.939,20.369
			c-2.477,11.028-7.771,20.729-15.359,28.769c-13.598,14.412-27.601,28.475-41.994,42.092c-8.277,7.83-18.252,13.314-29.642,15.797
			c-7.774,1.695-14.091,0.021-19.932-5.844c-60.222-60.455-120.61-120.746-180.924-181.11c-1.394-1.395-2.461-3.115-2.846-3.61
			c-18.428,9.314-35.248,18.856-52.881,26.531c-51.632,22.472-105.911,31.122-161.669,24.319
			c-119.402-14.567-206.685-76.355-261.35-183.417c-19.054-37.317-28.902-77.525-31.826-119.368
			c-0.113-1.612-0.56-3.202-0.852-4.802C215.775,349.112,215.775,336.778,215.775,324.445z M543.406,562.097
			c120.688-0.077,218.472-98.018,218.542-218.892c0.068-121.193-97.684-218.914-218.897-218.827
			c-120.864,0.087-218.749,97.97-218.683,218.68C324.433,464.001,422.605,562.173,543.406,562.097z"/>
	</g>
</g>
</svg>
