<?xml version="1.0" encoding="utf-8"?>
<!-- Generator: Adobe Illustrator 16.0.0, SVG Export Plug-In . SVG Version: 6.00 Build 0)  -->
<!DOCTYPE svg PUBLIC "-//W3C//DTD SVG 1.1//EN" "http://www.w3.org/Graphics/SVG/1.1/DTD/svg11.dtd">
<svg version="1.1" id="Layer_1" xmlns="http://www.w3.org/2000/svg" xmlns:xlink="http://www.w3.org/1999/xlink" x="0px" y="0px"
	 width="595.28px" height="841.89px" viewBox="0 0 595.28 841.89" enable-background="new 0 0 595.28 841.89" xml:space="preserve">
<rect x="131.903" y="19.383" fill="none" width="348.325" height="202.236"/>
<text transform="matrix(1 0 0 1 131.9033 177.5127)" fill="#EFC370" font-family="'Connie'" font-size="150">Juno</text>
<rect x="105.099" y="247.431" fill="none" width="401.935" height="143.903"/>
<text transform="matrix(1 0 0 1 105.0986 381.8296)" fill="#EFC370" font-family="'CoolveticaRg-Regular'" font-size="200">Juno</text>
<rect x="148.322" y="432.85" fill="none" width="315.487" height="143.903"/>
<text transform="matrix(1 0 0 1 148.3223 557.8496)" fill="#EFC370" font-family="'Eurofurenceregular'" font-size="200">Juno</text>
<g>
	<path fill="#EFC370" d="M51.936,716.621c0,13.5,4.749,25,14.25,34.5c9.499,9.501,21,14.25,34.5,14.25s24.999-4.749,34.5-14.25
		c9.499-9.5,14.25-21,14.25-34.5v-75h-3.75v75c0,12.4-4.401,23.001-13.2,31.799c-8.801,8.801-19.401,13.201-31.8,13.201
		c-12.401,0-23.001-4.4-31.8-13.201c-8.801-8.798-13.2-19.398-13.2-31.799"/>
	<path fill="#EFC370" d="M171.934,716.621v-75h3.75v75c0,12.4,4.399,23.001,13.2,31.799c8.798,8.801,19.399,13.201,31.8,13.201
		c12.398,0,22.999-4.4,31.8-13.201c8.799-8.798,13.2-19.398,13.2-31.799v-75h3.75v75c0,13.5-4.751,25-14.25,34.5
		c-9.501,9.501-21,14.25-34.5,14.25s-25.001-4.749-34.5-14.25C176.682,741.621,171.934,730.121,171.934,716.621z"/>
	<path fill="#EFC370" d="M299.432,646.721v118.65h-3.75v-123.75h4.8l86.101,118.649V641.621h3.75v123.75h-4.801L299.432,646.721z"/>
	<path fill="#EFC370" d="M525.029,657.07c12.8,12.802,19.2,28.252,19.2,46.35c0,18.202-6.4,33.701-19.2,46.5
		c-12.802,12.803-28.251,19.201-46.35,19.201c-18.202,0-33.701-6.398-46.5-19.201c-12.802-12.799-19.2-28.298-19.2-46.5
		c0-18.098,6.398-33.548,19.2-46.35c12.799-12.799,28.298-19.199,46.5-19.199C496.778,637.871,512.228,644.271,525.029,657.07z
		 M478.68,641.621c-17.101,0-31.702,6.051-43.8,18.149c-12.102,12.101-18.15,26.651-18.15,43.649
		c0,17.101,6.049,31.702,18.15,43.801c12.098,12.101,26.699,18.15,43.8,18.15c16.999,0,31.549-6.05,43.649-18.15
		c12.099-12.099,18.15-26.7,18.15-43.801c0-16.998-6.052-31.549-18.15-43.649C510.229,647.672,495.679,641.621,478.68,641.621z"/>
</g>
</svg>
