<?xml version="1.0" encoding="utf-8"?>
<!-- Generator: Adobe Illustrator 16.0.0, SVG Export Plug-In . SVG Version: 6.00 Build 0)  -->
<!DOCTYPE svg PUBLIC "-//W3C//DTD SVG 1.1//EN" "http://www.w3.org/Graphics/SVG/1.1/DTD/svg11.dtd">
<svg version="1.1" id="Layer_1" xmlns="http://www.w3.org/2000/svg" xmlns:xlink="http://www.w3.org/1999/xlink" x="0px" y="0px"
	 width="1190.55px" height="841.89px" viewBox="0 0 1190.55 841.89" style="enable-background:new 0 0 1190.55 841.89;"
	 xml:space="preserve">
<style type="text/css">
<![CDATA[
	.st0{fill:#EFC370;}
]]>
</style>
<g>
	<path class="st0" d="M349.128,424.287c0,13.5,4.749,25,14.25,34.5c9.499,9.502,21,14.25,34.5,14.25s24.999-4.748,34.5-14.25
		c9.499-9.5,14.25-21,14.25-34.5v-75h-3.75v75c0,12.4-4.401,23.002-13.2,31.799c-8.801,8.801-19.401,13.201-31.8,13.201
		c-12.401,0-23.001-4.4-31.8-13.201c-8.801-8.797-13.2-19.398-13.2-31.799"/>
	<path class="st0" d="M469.126,424.287v-75h3.75v75c0,12.4,4.399,23.002,13.2,31.799c8.798,8.801,19.399,13.201,31.8,13.201
		c12.398,0,22.999-4.4,31.8-13.201c8.799-8.797,13.2-19.398,13.2-31.799v-75h3.75v75c0,13.5-4.751,25-14.25,34.5
		c-9.501,9.502-21,14.25-34.5,14.25s-25.001-4.748-34.5-14.25C473.875,449.287,469.126,437.787,469.126,424.287z"/>
	<path class="st0" d="M596.624,354.387v118.65h-3.75v-123.75h4.8l86.101,118.65v-118.65h3.75v123.75h-4.801L596.624,354.387z"/>
	<path class="st0" d="M822.222,364.737c12.8,12.802,19.2,28.252,19.2,46.35c0,18.203-6.4,33.701-19.2,46.5
		c-12.802,12.803-28.251,19.201-46.35,19.201c-18.202,0-33.701-6.398-46.5-19.201c-12.802-12.799-19.2-28.297-19.2-46.5
		c0-18.098,6.398-33.548,19.2-46.35c12.799-12.799,28.298-19.199,46.5-19.199C793.971,345.538,809.42,351.938,822.222,364.737z
		 M775.872,349.288c-17.101,0-31.702,6.051-43.8,18.149c-12.102,12.101-18.15,26.651-18.15,43.649c0,17.101,6.049,31.703,18.15,43.8
		c12.098,12.102,26.699,18.15,43.8,18.15c16.999,0,31.549-6.049,43.649-18.15c12.099-12.098,18.15-26.699,18.15-43.8
		c0-16.998-6.052-31.549-18.15-43.649C807.421,355.338,792.871,349.288,775.872,349.288z"/>
</g>
</svg>
