<?xml version="1.0" encoding="utf-8"?>
<!-- Generator: Adobe Illustrator 16.0.0, SVG Export Plug-In . SVG Version: 6.00 Build 0)  -->
<!DOCTYPE svg PUBLIC "-//W3C//DTD SVG 1.1//EN" "http://www.w3.org/Graphics/SVG/1.1/DTD/svg11.dtd">
<svg version="1.1" id="Layer_1" xmlns="http://www.w3.org/2000/svg" xmlns:xlink="http://www.w3.org/1999/xlink" x="0px" y="0px"
	 width="1190.55px" height="841.89px" viewBox="0 0 1190.55 841.89" enable-background="new 0 0 1190.55 841.89"
	 xml:space="preserve">
<rect x="609.426" y="569.545" fill="#D1E7F4" width="580.482" height="220.197"/>
<circle fill="#FFFFFF" cx="724.368" cy="679.644" r="75.327"/>
<circle fill="#54BBB2" cx="1072.789" cy="679.644" r="75.327"/>
<circle fill="#12141F" cx="900.308" cy="679.645" r="75.327"/>
<rect x="609.041" y="47.425" fill="#111E26" width="580.482" height="220.197"/>
<circle fill="#D2ECEF" cx="725.392" cy="157.524" r="75.327"/>
<circle fill="#54BBB2" cx="900.306" cy="157.524" r="75.326"/>
<circle fill="#292F6E" cx="1073.171" cy="157.524" r="75.327"/>
<rect y="309.699" fill="#3C3241" width="580.482" height="220.197"/>
<circle fill="#87C540" cx="117.375" cy="419.797" r="75.327"/>
<circle fill="#D8D6D9" cx="292.291" cy="419.797" r="75.326"/>
<circle fill="#FFFFFF" cx="465.155" cy="419.797" r="75.326"/>
<rect y="569.545" fill="#F7F7F7" width="580.481" height="220.197"/>
<circle fill="#CCCCCC" cx="116.35" cy="679.644" r="75.326"/>
<circle fill="#EB9587" cx="291.266" cy="679.644" r="75.326"/>
<circle fill="#FFFFFF" cx="464.13" cy="679.644" r="75.326"/>
<rect x="610.066" y="309.7" fill="#FFEEDE" width="580.483" height="220.197"/>
<circle fill="#ABABAB" cx="725.009" cy="419.798" r="75.327"/>
<circle fill="#FBCCC4" cx="899.923" cy="419.798" r="75.326"/>
<circle fill="#DEDDDD" cx="1072.788" cy="419.798" r="75.327"/>
<rect x="0.205" y="47.425" fill="#CCCCCC" width="580.482" height="220.197"/>
<circle fill="#F1F2F2" cx="116.556" cy="157.524" r="75.326"/>
<circle fill="#F1C56C" cx="291.47" cy="157.524" r="75.326"/>
<circle fill="#FFFBF3" cx="464.335" cy="157.524" r="75.327"/>
</svg>
