<?xml version="1.0" encoding="utf-8"?>
<!-- Generator: Adobe Illustrator 16.0.0, SVG Export Plug-In . SVG Version: 6.00 Build 0)  -->
<!DOCTYPE svg PUBLIC "-//W3C//DTD SVG 1.1//EN" "http://www.w3.org/Graphics/SVG/1.1/DTD/svg11.dtd">
<svg version="1.1" id="Layer_1" xmlns="http://www.w3.org/2000/svg" xmlns:xlink="http://www.w3.org/1999/xlink" x="0px" y="0px"
	 width="1190.55px" height="841.89px" viewBox="0 0 1190.55 841.89" enable-background="new 0 0 1190.55 841.89"
	 xml:space="preserve">
<rect x="339.086" y="310.846" fill="#120F3C" width="580.481" height="220.197"/>
<path fill="#FFFFFF" d="M531.787,420.944c0,41.605-33.725,75.328-75.326,75.328s-75.326-33.723-75.326-75.328
	c0-41.6,33.725-75.325,75.326-75.325S531.787,379.344,531.787,420.944z"/>
<path fill="#EFC370" d="M706.702,420.944c0,41.605-33.724,75.328-75.325,75.328c-41.603,0-75.327-33.723-75.327-75.328
	c0-41.6,33.725-75.325,75.327-75.325C672.979,345.619,706.702,379.344,706.702,420.944z"/>
<path fill="#FFFFFF" d="M879.567,420.944c0,41.605-33.725,75.328-75.326,75.328c-41.6,0-75.326-33.723-75.326-75.328
	c0-41.6,33.727-75.325,75.326-75.325C845.843,345.619,879.567,379.344,879.567,420.944z"/>
</svg>
