<?xml version="1.0" encoding="utf-8"?>
<!-- Generator: Adobe Illustrator 16.0.0, SVG Export Plug-In . SVG Version: 6.00 Build 0)  -->
<!DOCTYPE svg PUBLIC "-//W3C//DTD SVG 1.1//EN" "http://www.w3.org/Graphics/SVG/1.1/DTD/svg11.dtd">
<svg version="1.1" id="Layer_1" xmlns="http://www.w3.org/2000/svg" xmlns:xlink="http://www.w3.org/1999/xlink" x="0px" y="0px"
	 width="1920px" height="1080px" viewBox="0 0 1920 1080" enable-background="new 0 0 1920 1080" xml:space="preserve">
<rect x="-72" y="-153" width="2292" height="1416"/>
<polygon opacity="0.7" fill="#737373" points="835,19 835,94 1072.604,94 1084,71.554 1084,19 "/>
<polygon opacity="0.9" fill="none" stroke="#FFFFFF" stroke-width="3" stroke-miterlimit="10" points="835.5,18.5 835.5,93.5 
	1073.604,93.5 1084.5,70.554 1084.5,18.5 "/>
<g>
	
		<circle fill="none" stroke="#FFFFFF" stroke-width="4" stroke-miterlimit="10" stroke-dasharray="11.9081,11.9081" cx="960" cy="540" r="235"/>
</g>
<circle fill="none" stroke="#FFFFFF" stroke-width="3" stroke-miterlimit="10" cx="1729" cy="897" r="78"/>
<circle opacity="0.9" fill="#737373" stroke="#FFFFFF" stroke-width="3" stroke-miterlimit="10" cx="1729" cy="897" r="36"/>
<circle fill="none" stroke="#FFFFFF" stroke-width="3" stroke-miterlimit="10" cx="961" cy="540" r="27"/>
<circle fill="#FFFFFF" stroke="#FFFFFF" stroke-miterlimit="10" cx="960.5" cy="539.5" r="1.5"/>
<line fill="none" stroke="#FFFFFF" stroke-width="2" stroke-miterlimit="10" x1="960" y1="513" x2="960" y2="496"/>
<line fill="none" stroke="#FFFFFF" stroke-width="2" stroke-miterlimit="10" x1="960" y1="585" x2="960" y2="568"/>
<line fill="none" stroke="#FFFFFF" stroke-width="2" stroke-miterlimit="10" x1="917" y1="542" x2="934" y2="542"/>
<line fill="none" stroke="#FFFFFF" stroke-width="2" stroke-miterlimit="10" x1="988" y1="542" x2="1005" y2="542"/>
<circle fill="none" stroke="#FFFFFF" stroke-width="5" stroke-miterlimit="10" cx="149.729" cy="897" r="58.768"/>
<circle fill="none" stroke="#737373" stroke-width="5" stroke-miterlimit="10" cx="149.729" cy="897" r="48.552"/>
<circle fill="none" stroke="#FFFFFF" stroke-width="5" stroke-miterlimit="10" cx="149.729" cy="897" r="36.926"/>
<circle fill="#F93155" cx="962" cy="934" r="36"/>
<polyline fill="none" stroke="#FFFFFF" stroke-width="2" stroke-miterlimit="10" points="1715,848.582 1729.541,834.041 
	1743.291,847.791 "/>
<polyline fill="none" stroke="#FFFFFF" stroke-width="2" stroke-miterlimit="10" points="1743.291,947.041 1728.75,961.582 
	1715,947.832 "/>
<polyline fill="none" stroke="#FFFFFF" stroke-width="2" stroke-miterlimit="10" points="1778.876,883.166 1793.417,897.707 
	1779.667,911.457 "/>
<polyline fill="none" stroke="#FFFFFF" stroke-width="2" stroke-miterlimit="10" points="1680.416,911.456 1665.875,896.915 
	1679.625,883.165 "/>
<circle fill="none" stroke="#FFFFFF" stroke-width="3" stroke-miterlimit="10" cx="962" cy="934" r="36"/>
<polyline opacity="0.9" fill="#737373" points="55,133 55,282 288.596,282 323.542,244 435,244 435,133.546 54.757,133.25 "/>
<rect x="79.731" y="157.707" fill="none" width="345.035" height="112.6"/>
<text transform="matrix(1 0 0 1 79.7314 191.3062)"><tspan x="0" y="0" fill="#FFFFFF" font-family="'CoolveticaRg-Regular'" font-size="50">Time Remaining:</tspan><tspan x="0" y="60" fill="#FFFFFF" font-family="'CoolveticaRg-Regular'" font-size="50">0.3y</tspan></text>
<polyline fill="none" stroke="#FFFFFF" stroke-width="3" stroke-miterlimit="10" points="55.5,133 55.5,281.5 288.596,281.5 
	323.542,243.5 435.5,243.5 435.5,133.546 55.257,133.25 "/>
<polyline opacity="0.9" fill="#737373" points="1863,131 1863,280 1629.162,280 1594.217,242 1483,242 1483,131.546 
	1863.242,131.25 "/>
<polyline fill="none" stroke="#FFFFFF" stroke-width="3" stroke-miterlimit="10" points="1863.5,133 1863.5,281.5 1630.162,281.5 
	1595.217,243.5 1483.5,243.5 1483.5,133.546 1863.742,133.25 "/>
<rect x="1561.526" y="155.957" fill="none" width="274.947" height="114.35"/>
<text transform="matrix(1 0 0 1 1568.0293 189.5562)"><tspan x="0" y="0" fill="#FFFFFF" font-family="'CoolveticaRg-Regular'" font-size="50">Havana Cuba</tspan><tspan x="56.099" y="60" fill="#FFFFFF" font-family="'CoolveticaRg-Regular'" font-size="50">03/07/1965</tspan></text>
<rect x="856.651" y="35.51" fill="none" width="206.696" height="42.98"/>
<text transform="matrix(1 0 0 1 856.6514 69.1104)" fill="#FFFFFF" font-family="'CoolveticaRg-Regular'" font-size="50">CAPTURE</text>
</svg>
