<?xml version="1.0" encoding="utf-8"?>
<!-- Generator: Adobe Illustrator 16.0.0, SVG Export Plug-In . SVG Version: 6.00 Build 0)  -->
<!DOCTYPE svg PUBLIC "-//W3C//DTD SVG 1.1//EN" "http://www.w3.org/Graphics/SVG/1.1/DTD/svg11.dtd">
<svg version="1.1" id="Layer_2" xmlns="http://www.w3.org/2000/svg" xmlns:xlink="http://www.w3.org/1999/xlink" x="0px" y="0px"
	 width="1920px" height="1080px" viewBox="0 0 1920 1080" enable-background="new 0 0 1920 1080" xml:space="preserve">
<rect x="959" y="2" width="960" height="1080"/>
<g id="snyEQb_1_">
	
		<image overflow="visible" width="1806" height="1133" id="snyEQb" xlink:href="255D6115C1B53E5B.jpg"  transform="matrix(0.36 0 0 0.36 170.4199 599.8105)">
	</image>
</g>
<g id="RSzQbq_1_">
	
		<image overflow="visible" width="1806" height="1133" id="RSzQbq" xlink:href="255D6115C1B53E59.jpg"  transform="matrix(0.36 0 0 0.36 1105.21 598.8105)">
	</image>
</g>
<rect x="1940" fill="#FD2E51" width="1920" height="1080"/>
<g id="p8BbRh_1_">
	
		<image overflow="visible" width="1806" height="1133" id="p8BbRh" xlink:href="255D6115C1B53E5F.jpg"  transform="matrix(0.36 0 0 0.36 2089.1396 595.8105)">
	</image>
</g>
<g id="BjTk0H_1_">
	
		<image overflow="visible" width="1806" height="1133" id="BjTk0H" xlink:href="255D6115C1B53E58.jpg"  transform="matrix(0.36 0 0 0.36 3058.9199 588.8105)">
	</image>
</g>
<g id="gFHaj3.tif_1_">
	
		<image overflow="visible" width="800" height="600" id="Layer_0_3_" xlink:href="255D6115C1B53E5B.png"  transform="matrix(-7.052242e-08 1.5441 -1.6134 -6.749312e-08 -971.9814 -156.2495)">
	</image>
</g>
<g id="w3w2e8.tif_1_">
	
		<image overflow="visible" width="640" height="400" id="Layer_0_4_" xlink:href="255D6115C1B53E59.png"  transform="matrix(1.0125 0 0 1.0125 -1769.5 599.25)">
	</image>
</g>
<g id="gFHaj3.tif">
	
		<image overflow="visible" width="800" height="600" id="Layer_0_1_" xlink:href="255D6115C1B53E67.png"  transform="matrix(-7.037740e-08 1.5409 -1.61 -6.735433e-08 -6.8838 -153.7104)">
	</image>
</g>
<g id="w3w2e8.tif">
	
		<image overflow="visible" width="640" height="400" id="Layer_0_2_" xlink:href="255D6115C1B53E69.png"  transform="matrix(1.0125 0 0 1.0125 -832.8496 594.75)">
	</image>
</g>
<g>
	<defs>
		<polygon id="SVGID_1_" points="-3706.064,1006.08 -3058.73,1006.08 -3058.73,600.461 -3708.968,600.461 		"/>
	</defs>
	<clipPath id="SVGID_2_">
		<use xlink:href="#SVGID_1_"  overflow="visible"/>
	</clipPath>
	<g clip-path="url(#SVGID_2_)">
		<defs>
			<rect id="SVGID_3_" x="-3708.015" y="598.376" width="649.285" height="407.704"/>
		</defs>
		<clipPath id="SVGID_4_">
			<use xlink:href="#SVGID_3_"  overflow="visible"/>
		</clipPath>
		<g transform="matrix(1 0 0 1 -2.441406e-04 0)" clip-path="url(#SVGID_4_)">
			
				<image overflow="visible" width="485" height="293" xlink:href="255D6115C1B53E6B.png"  transform="matrix(1.3387 0 0 1.3915 -3708.0146 598.376)">
			</image>
		</g>
	</g>
</g>
<rect x="-2920" fill="#032071" width="960" height="1080"/>
<path fill="none" stroke="#032071" stroke-width="3" stroke-miterlimit="10" d="M-3149.95,64.5h-593.55V982
	c0,0-0.117,20.5,23.55,21.5c28,0,680,0,680,0s16.45-1.5,16.45-14.5s0-799,0-799L-3149.95,64.5z"/>
<polygon fill="#032071" stroke="#032071" stroke-miterlimit="10" points="-3058.025,1002.661 -3067.979,1017.5 -3698.279,1017.5 
	-3707.535,1003.859 "/>
<polygon fill="#032071" stroke="#032071" stroke-miterlimit="10" points="-3368.2,64.902 -3355.45,77.5 -3158.95,77.5 
	-3036.5,199.583 -3036.5,305.066 -3023.5,318.5 -3023.5,190.626 -3150.225,64.325 "/>
<polyline fill="none" stroke="#032071" stroke-width="3" stroke-miterlimit="10" points="-3058.5,1002 -3058.5,600.5 
	-3687.843,600.5 -3707.5,619.21 -3707.5,1003 "/>
<polygon fill="#032071" stroke="#032071" stroke-miterlimit="10" points="-3545.775,600.645 -3555.525,610.5 -3679.025,610.5 
	-3695.5,626.5 -3695.5,700 -3706.5,711 -3706.5,619 -3688.171,601.033 "/>
<rect x="-3707.535" y="101.364" fill="none" width="551.973" height="37.498"/>
<text transform="matrix(1 0 0 1 -3707.5352 134.9639)" fill="#032071" font-family="'CoolveticaRg-Regular'" font-size="50">SEAHAWK</text>
<rect x="-3705" y="161.94" fill="none" width="551.973" height="20.119"/>
<text transform="matrix(1 0 0 1 -3705 178.7402)" fill="#FD2E51" font-family="'CoolveticaRg-Regular'" font-size="25">KÖPSTADSÖ GOTHENBURG SWEDEN</text>
<g>
	<rect x="-3110.766" y="523" fill="none" width="52.74" height="38"/>
	<text transform="matrix(1 0 0 1 -3110.7656 556.5996)" fill="#FD2E51" font-family="'CoolveticaRg-Regular'" font-size="50">6h</text>
</g>
<rect x="-3707" y="202" fill="none" width="578" height="360"/>
<text transform="matrix(1 0 0 1 -3707 218.7998)"><tspan x="0" y="0" fill="#032071" font-family="'CoolveticaRg-Regular'" font-size="25">Sunset over the island of Kopstadso Dolor sit amet, </tspan><tspan x="0" y="30" fill="#032071" font-family="'CoolveticaRg-Regular'" font-size="25">omnis accusata id nam, vel verear dissentiunt effician</tspan><tspan x="549.914" y="30" fill="#032071" font-family="'CoolveticaRg-Regular'" font-size="25">-</tspan><tspan x="0" y="60" fill="#032071" font-family="'CoolveticaRg-Regular'" font-size="25">tur id. Id sed esse wisi voluptatum, no his illud tibique </tspan><tspan x="0" y="90" fill="#032071" font-family="'CoolveticaRg-Regular'" font-size="25">senserit, usu et everti oblique percipit. Nec ea officiis </tspan><tspan x="0" y="120" fill="#032071" font-family="'CoolveticaRg-Regular'" font-size="25">interesset, in mundi dolore has. Postea assentior qui ex, </tspan><tspan x="0" y="150" fill="#032071" font-family="'CoolveticaRg-Regular'" font-size="25">affert tantas instructior ad nam, illum lorem.</tspan><tspan x="0" y="210" fill="#032071" font-family="'CoolveticaRg-Regular'" font-size="25">Dolor sit amet, omnis accusata id nam, vel verear dis</tspan><tspan x="541.99" y="210" fill="#032071" font-family="'CoolveticaRg-Regular'" font-size="25">-</tspan><tspan x="0" y="240" fill="#032071" font-family="'CoolveticaRg-Regular'" font-size="25">sentiunt efficiantur id. Id sed esse wisi voluptatum, no </tspan><tspan x="0" y="270" fill="#032071" font-family="'CoolveticaRg-Regular'" font-size="25">his illud tibique senserit, usu et everti oblique percipit. </tspan><tspan x="0" y="300" fill="#032071" font-family="'CoolveticaRg-Regular'" font-size="25">Nec ea officiis interesset, in mundi dolore has. Postea </tspan><tspan x="0" y="330" fill="#032071" font-family="'CoolveticaRg-Regular'" font-size="25">assentior qui ex, affert tantas instructior ad nam.</tspan></text>
<path fill="none" stroke="#FFFFFF" stroke-width="3" stroke-miterlimit="10" d="M-2212.95,61.5h-593.55V979
	c0,0-0.117,20.5,23.55,21.5c28,0,680,0,680,0s16.45-1.5,16.45-14.5s0-799,0-799L-2212.95,61.5z"/>
<polygon fill="#FFFFFF" stroke="#FFFFFF" stroke-miterlimit="10" points="-2121.025,999.661 -2130.979,1014.5 -2761.279,1014.5 
	-2770.535,1000.859 "/>
<polygon fill="#FFFFFF" stroke="#FFFFFF" stroke-miterlimit="10" points="-2431.2,61.902 -2418.45,74.5 -2221.95,74.5 
	-2099.5,196.583 -2099.5,302.066 -2086.5,315.5 -2086.5,187.626 -2213.225,61.325 "/>
<rect x="-2770.535" y="98.364" fill="none" width="551.973" height="37.498"/>
<text transform="matrix(1 0 0 1 -2770.5352 131.9639)" fill="#FFFFFF" font-family="'CoolveticaRg-Regular'" font-size="50">SEAHAWK</text>
<rect x="-2768" y="161.94" fill="none" width="551.973" height="20.119"/>
<text transform="matrix(1 0 0 1 -2768 178.7402)" fill="#FD2E51" font-family="'CoolveticaRg-Regular'" font-size="25">KÖPSTADSÖ GOTHENBURG SWEDEN</text>
<g>
	<rect x="-2177.37" y="520" fill="none" width="52.74" height="38"/>
	<text transform="matrix(1 0 0 1 -2177.3701 553.5996)" fill="#FD2E51" font-family="'CoolveticaRg-Regular'" font-size="50">6h</text>
</g>
<rect x="-2770" y="205" fill="none" width="578" height="354"/>
<text transform="matrix(1 0 0 1 -2770 221.7998)"><tspan x="0" y="0" fill="#FFFFFF" font-family="'CoolveticaRg-Regular'" font-size="25">Sunset over the island of Kopstadso Dolor sit amet, </tspan><tspan x="0" y="30" fill="#FFFFFF" font-family="'CoolveticaRg-Regular'" font-size="25">omnis accusata id nam, vel verear dissentiunt effician</tspan><tspan x="549.914" y="30" fill="#FFFFFF" font-family="'CoolveticaRg-Regular'" font-size="25">-</tspan><tspan x="0" y="60" fill="#FFFFFF" font-family="'CoolveticaRg-Regular'" font-size="25">tur id. Id sed esse wisi voluptatum, no his illud tibique </tspan><tspan x="0" y="90" fill="#FFFFFF" font-family="'CoolveticaRg-Regular'" font-size="25">senserit, usu et everti oblique percipit. Nec ea officiis </tspan><tspan x="0" y="120" fill="#FFFFFF" font-family="'CoolveticaRg-Regular'" font-size="25">interesset, in mundi dolore has. Postea assentior qui ex, </tspan><tspan x="0" y="150" fill="#FFFFFF" font-family="'CoolveticaRg-Regular'" font-size="25">affert tantas instructior ad nam, illum lorem.</tspan><tspan x="0" y="210" fill="#FFFFFF" font-family="'CoolveticaRg-Regular'" font-size="25">Dolor sit amet, omnis accusata id nam, vel verear dis</tspan><tspan x="541.99" y="210" fill="#FFFFFF" font-family="'CoolveticaRg-Regular'" font-size="25">-</tspan><tspan x="0" y="240" fill="#FFFFFF" font-family="'CoolveticaRg-Regular'" font-size="25">sentiunt efficiantur id. Id sed esse wisi voluptatum, no </tspan><tspan x="0" y="270" fill="#FFFFFF" font-family="'CoolveticaRg-Regular'" font-size="25">his illud tibique senserit, usu et everti oblique percipit. </tspan><tspan x="0" y="300" fill="#FFFFFF" font-family="'CoolveticaRg-Regular'" font-size="25">Nec ea officiis interesset, in mundi dolore has. Postea </tspan><tspan x="0" y="330" fill="#FFFFFF" font-family="'CoolveticaRg-Regular'" font-size="25">assentior qui ex, affert tantas instructior ad nam.</tspan></text>
<rect x="-3726" y="577" transform="matrix(0.7071 0.7071 -0.7071 0.7071 -665.1125 2796.7234)" fill="#FFFFFF" width="35" height="37"/>
<g>
	<defs>
		<polygon id="SVGID_5_" points="-2769.064,1000.08 -2121.73,1000.08 -2121.73,594.461 -2771.969,594.461 		"/>
	</defs>
	<clipPath id="SVGID_6_">
		<use xlink:href="#SVGID_5_"  overflow="visible"/>
	</clipPath>
	<g clip-path="url(#SVGID_6_)">
		<defs>
			<rect id="SVGID_7_" x="-2771.015" y="592.376" width="649.284" height="407.704"/>
		</defs>
		<clipPath id="SVGID_8_">
			<use xlink:href="#SVGID_7_"  overflow="visible"/>
		</clipPath>
		<g transform="matrix(1 0 0 1 -2.441406e-04 0)" clip-path="url(#SVGID_8_)">
			
				<image overflow="visible" width="485" height="293" xlink:href="667F0824FF320338.png"  transform="matrix(1.3387 0 0 1.3915 -2771.0146 592.376)">
			</image>
		</g>
	</g>
</g>
<polyline fill="none" stroke="#FFFFFF" stroke-width="3" stroke-miterlimit="10" points="-2121.5,996 -2121.5,594.5 
	-2750.843,594.5 -2770.5,613.21 -2770.5,997 "/>
<polygon fill="#FFFFFF" stroke="#FFFFFF" stroke-miterlimit="10" points="-2608.775,594.645 -2618.525,604.5 -2742.025,604.5 
	-2758.5,620.5 -2758.5,694 -2769.5,705 -2769.5,613 -2751.171,595.033 "/>
<rect x="-2789" y="571" transform="matrix(0.7071 0.7071 -0.7071 0.7071 -394.9141 2132.407)" fill="#032071" width="35" height="37"/>
<path fill="none" stroke="#032071" stroke-width="3" stroke-miterlimit="10" d="M-1211.95,64.5h-593.55V982
	c0,0-0.117,20.5,23.55,21.5c28,0,680,0,680,0s16.45-1.5,16.45-14.5s0-799,0-799L-1211.95,64.5z"/>
<polygon fill="#032071" stroke="#032071" stroke-miterlimit="10" points="-1120.025,1002.661 -1129.979,1017.5 -1760.279,1017.5 
	-1769.535,1003.859 "/>
<polygon fill="#032071" stroke="#032071" stroke-miterlimit="10" points="-1430.2,64.902 -1417.45,77.5 -1220.95,77.5 
	-1098.5,199.583 -1098.5,305.066 -1085.5,318.5 -1085.5,190.626 -1212.225,64.325 "/>
<polyline fill="none" stroke="#032071" stroke-width="3" stroke-miterlimit="10" points="-1120.5,1002 -1120.5,600.5 
	-1749.843,600.5 -1769.5,619.21 -1769.5,1003 "/>
<rect x="-1769.535" y="101.364" fill="none" width="551.973" height="37.498"/>
<text transform="matrix(1 0 0 1 -1769.5352 134.9639)" fill="#032071" font-family="'CoolveticaRg-Regular'" font-size="50">SEAHAWK</text>
<rect x="-1767" y="161.94" fill="none" width="551.973" height="20.119"/>
<text transform="matrix(1 0 0 1 -1767 178.7402)" fill="#FD2E51" font-family="'CoolveticaRg-Regular'" font-size="25">KÖPSTADSÖ GOTHENBURG SWEDEN</text>
<g>
	<rect x="-1172.766" y="523" fill="none" width="52.74" height="38"/>
	<text transform="matrix(1 0 0 1 -1172.7656 556.5996)" fill="#FD2E51" font-family="'CoolveticaRg-Regular'" font-size="50">6h</text>
</g>
<rect x="-1769" y="202" fill="none" width="578" height="360"/>
<text transform="matrix(1 0 0 1 -1769 218.7998)"><tspan x="0" y="0" fill="#032071" font-family="'CoolveticaRg-Regular'" font-size="25">Sunset over the island of Kopstadso Dolor sit amet, </tspan><tspan x="0" y="30" fill="#032071" font-family="'CoolveticaRg-Regular'" font-size="25">omnis accusata id nam, vel verear dissentiunt effician</tspan><tspan x="549.914" y="30" fill="#032071" font-family="'CoolveticaRg-Regular'" font-size="25">-</tspan><tspan x="0" y="60" fill="#032071" font-family="'CoolveticaRg-Regular'" font-size="25">tur id. Id sed esse wisi voluptatum, no his illud tibique </tspan><tspan x="0" y="90" fill="#032071" font-family="'CoolveticaRg-Regular'" font-size="25">senserit, usu et everti oblique percipit. Nec ea officiis </tspan><tspan x="0" y="120" fill="#032071" font-family="'CoolveticaRg-Regular'" font-size="25">interesset, in mundi dolore has. Postea assentior qui ex, </tspan><tspan x="0" y="150" fill="#032071" font-family="'CoolveticaRg-Regular'" font-size="25">affert tantas instructior ad nam, illum lorem.</tspan><tspan x="0" y="210" fill="#032071" font-family="'CoolveticaRg-Regular'" font-size="25">Dolor sit amet, omnis accusata id nam, vel verear dis</tspan><tspan x="541.99" y="210" fill="#032071" font-family="'CoolveticaRg-Regular'" font-size="25">-</tspan><tspan x="0" y="240" fill="#032071" font-family="'CoolveticaRg-Regular'" font-size="25">sentiunt efficiantur id. Id sed esse wisi voluptatum, no </tspan><tspan x="0" y="270" fill="#032071" font-family="'CoolveticaRg-Regular'" font-size="25">his illud tibique senserit, usu et everti oblique percipit. </tspan><tspan x="0" y="300" fill="#032071" font-family="'CoolveticaRg-Regular'" font-size="25">Nec ea officiis interesset, in mundi dolore has. Postea </tspan><tspan x="0" y="330" fill="#032071" font-family="'CoolveticaRg-Regular'" font-size="25">assentior qui ex, affert tantas instructior ad nam.</tspan></text>
<path fill="none" stroke="#FFFFFF" stroke-width="3" stroke-miterlimit="10" d="M-274.95,61.5H-868.5V979c0,0-0.117,20.5,23.55,21.5
	c28,0,680,0,680,0s16.45-1.5,16.45-14.5s0-799,0-799L-274.95,61.5z"/>
<polygon fill="#FFFFFF" stroke="#FFFFFF" stroke-miterlimit="10" points="-183.025,999.661 -192.979,1014.5 -823.279,1014.5 
	-832.535,1000.859 "/>
<polygon fill="#FFFFFF" stroke="#FFFFFF" stroke-miterlimit="10" points="-493.2,61.902 -480.45,74.5 -283.95,74.5 -161.5,196.583 
	-161.5,302.066 -148.5,315.5 -148.5,187.626 -275.225,61.325 "/>
<rect x="-832.535" y="98.364" fill="none" width="551.973" height="37.498"/>
<text transform="matrix(1 0 0 1 -832.5352 131.9639)" fill="#FFFFFF" font-family="'CoolveticaRg-Regular'" font-size="50">SEAHAWK</text>
<rect x="-830" y="161.94" fill="none" width="551.973" height="20.119"/>
<text transform="matrix(1 0 0 1 -830 178.7402)" fill="#FD2E51" font-family="'CoolveticaRg-Regular'" font-size="25">KÖPSTADSÖ GOTHENBURG SWEDEN</text>
<g>
	<rect x="-239.37" y="520" fill="none" width="52.74" height="38"/>
	<text transform="matrix(1 0 0 1 -239.3701 553.5996)" fill="#FD2E51" font-family="'CoolveticaRg-Regular'" font-size="50">6h</text>
</g>
<rect x="-832" y="205" fill="none" width="578" height="354"/>
<text transform="matrix(1 0 0 1 -832 221.7998)"><tspan x="0" y="0" fill="#FFFFFF" font-family="'CoolveticaRg-Regular'" font-size="25">Sunset over the island of Kopstadso Dolor sit amet, </tspan><tspan x="0" y="30" fill="#FFFFFF" font-family="'CoolveticaRg-Regular'" font-size="25">omnis accusata id nam, vel verear dissentiunt effician</tspan><tspan x="549.914" y="30" fill="#FFFFFF" font-family="'CoolveticaRg-Regular'" font-size="25">-</tspan><tspan x="0" y="60" fill="#FFFFFF" font-family="'CoolveticaRg-Regular'" font-size="25">tur id. Id sed esse wisi voluptatum, no his illud tibique </tspan><tspan x="0" y="90" fill="#FFFFFF" font-family="'CoolveticaRg-Regular'" font-size="25">senserit, usu et everti oblique percipit. Nec ea officiis </tspan><tspan x="0" y="120" fill="#FFFFFF" font-family="'CoolveticaRg-Regular'" font-size="25">interesset, in mundi dolore has. Postea assentior qui ex, </tspan><tspan x="0" y="150" fill="#FFFFFF" font-family="'CoolveticaRg-Regular'" font-size="25">affert tantas instructior ad nam, illum lorem.</tspan><tspan x="0" y="210" fill="#FFFFFF" font-family="'CoolveticaRg-Regular'" font-size="25">Dolor sit amet, omnis accusata id nam, vel verear dis</tspan><tspan x="541.99" y="210" fill="#FFFFFF" font-family="'CoolveticaRg-Regular'" font-size="25">-</tspan><tspan x="0" y="240" fill="#FFFFFF" font-family="'CoolveticaRg-Regular'" font-size="25">sentiunt efficiantur id. Id sed esse wisi voluptatum, no </tspan><tspan x="0" y="270" fill="#FFFFFF" font-family="'CoolveticaRg-Regular'" font-size="25">his illud tibique senserit, usu et everti oblique percipit. </tspan><tspan x="0" y="300" fill="#FFFFFF" font-family="'CoolveticaRg-Regular'" font-size="25">Nec ea officiis interesset, in mundi dolore has. Postea </tspan><tspan x="0" y="330" fill="#FFFFFF" font-family="'CoolveticaRg-Regular'" font-size="25">assentior qui ex, affert tantas instructior ad nam.</tspan></text>
<polyline fill="none" stroke="#FFFFFF" stroke-width="3" stroke-miterlimit="10" points="-183.5,1001 -183.5,594.5 -812.843,594.5 
	-832.5,613.427 -832.5,1002 "/>
<polygon fill="#FFFFFF" stroke="#FFFFFF" stroke-miterlimit="10" points="-666.775,585.519 -677.601,596.5 -814.715,596.5 
	-832.5,614.186 -832.5,695.788 -845.5,708 -845.5,605.859 -825.01,585.931 "/>
<polygon fill="#032071" stroke="#032071" stroke-miterlimit="10" points="-1600.775,588.519 -1611.601,599.5 -1748.715,599.5 
	-1766.5,617.186 -1766.5,698.788 -1779.5,711 -1779.5,608.859 -1759.01,588.931 "/>
<path fill="none" stroke="#032071" stroke-width="3" stroke-miterlimit="10" d="M729.05,66.5H135.5V984c0,0-0.117,20.5,23.55,21.5
	c28,0,680,0,680,0s16.45-1.5,16.45-14.5s0-799,0-799L729.05,66.5z"/>
<polygon fill="#032071" stroke="#032071" stroke-miterlimit="10" points="820.975,1004.661 811.021,1019.5 180.721,1019.5 
	171.465,1005.859 "/>
<polygon fill="#032071" stroke="#032071" stroke-miterlimit="10" points="510.8,66.902 523.55,79.5 720.05,79.5 842.5,201.582 
	842.5,307.066 855.5,320.5 855.5,192.627 728.775,66.325 "/>
<polyline fill="none" stroke="#032071" stroke-width="3" stroke-miterlimit="10" points="820.5,1004 820.5,602.5 191.157,602.5 
	171.5,621.21 171.5,1005 "/>
<polygon fill="#032071" stroke="#032071" stroke-miterlimit="10" points="333.225,602.645 323.475,612.5 199.975,612.5 183.5,628.5 
	183.5,702 172.5,713 172.5,621 190.829,603.033 "/>
<rect x="171.465" y="103.364" fill="none" width="551.973" height="37.498"/>
<text transform="matrix(1 0 0 1 171.4648 136.9639)" fill="#E2B80B" font-family="'CoolveticaRg-Regular'" font-size="50">SEAHAWK</text>
<rect x="174" y="163.94" fill="none" width="551.973" height="20.119"/>
<text transform="matrix(1 0 0 1 174 180.7402)" fill="#FD2E51" font-family="'CoolveticaRg-Regular'" font-size="25">KÖPSTADSÖ GOTHENBURG SWEDEN</text>
<g>
	<rect x="768.234" y="525" fill="none" width="52.74" height="38"/>
	<text transform="matrix(1 0 0 1 768.2344 558.5996)" fill="#FD2E51" font-family="'CoolveticaRg-Regular'" font-size="50">6h</text>
</g>
<rect x="172" y="204" fill="none" width="578" height="360"/>
<text transform="matrix(1 0 0 1 172 220.7998)"><tspan x="0" y="0" fill="#032071" font-family="'CoolveticaRg-Regular'" font-size="25">Sunset over the island of Kopstadso Dolor sit amet, </tspan><tspan x="0" y="30" fill="#032071" font-family="'CoolveticaRg-Regular'" font-size="25">omnis accusata id nam, vel verear dissentiunt effician</tspan><tspan x="549.914" y="30" fill="#032071" font-family="'CoolveticaRg-Regular'" font-size="25">-</tspan><tspan x="0" y="60" fill="#032071" font-family="'CoolveticaRg-Regular'" font-size="25">tur id. Id sed esse wisi voluptatum, no his illud tibique </tspan><tspan x="0" y="90" fill="#032071" font-family="'CoolveticaRg-Regular'" font-size="25">senserit, usu et everti oblique percipit. Nec ea officiis </tspan><tspan x="0" y="120" fill="#032071" font-family="'CoolveticaRg-Regular'" font-size="25">interesset, in mundi dolore has. Postea assentior qui ex, </tspan><tspan x="0" y="150" fill="#032071" font-family="'CoolveticaRg-Regular'" font-size="25">affert tantas instructior ad nam, illum lorem.</tspan><tspan x="0" y="210" fill="#032071" font-family="'CoolveticaRg-Regular'" font-size="25">Dolor sit amet, omnis accusata id nam, vel verear dis</tspan><tspan x="541.99" y="210" fill="#032071" font-family="'CoolveticaRg-Regular'" font-size="25">-</tspan><tspan x="0" y="240" fill="#032071" font-family="'CoolveticaRg-Regular'" font-size="25">sentiunt efficiantur id. Id sed esse wisi voluptatum, no </tspan><tspan x="0" y="270" fill="#032071" font-family="'CoolveticaRg-Regular'" font-size="25">his illud tibique senserit, usu et everti oblique percipit. </tspan><tspan x="0" y="300" fill="#032071" font-family="'CoolveticaRg-Regular'" font-size="25">Nec ea officiis interesset, in mundi dolore has. Postea </tspan><tspan x="0" y="330" fill="#032071" font-family="'CoolveticaRg-Regular'" font-size="25">assentior qui ex, affert tantas instructior ad nam.</tspan></text>
<path fill="none" stroke="#FFFFFF" stroke-width="3" stroke-miterlimit="10" d="M1666.05,63.5H1072.5V981c0,0-0.117,20.5,23.55,21.5
	c28,0,680,0,680,0s16.45-1.5,16.45-14.5s0-799,0-799L1666.05,63.5z"/>
<polygon fill="#FFFFFF" stroke="#FFFFFF" stroke-miterlimit="10" points="1757.975,1001.661 1748.021,1016.5 1117.721,1016.5 
	1108.465,1002.859 "/>
<polygon fill="#FFFFFF" stroke="#FFFFFF" stroke-miterlimit="10" points="1447.8,63.902 1460.55,76.5 1657.05,76.5 1779.5,198.582 
	1779.5,304.066 1792.5,317.5 1792.5,189.627 1665.775,63.325 "/>
<rect x="1108.465" y="100.364" fill="none" width="551.973" height="37.498"/>
<text transform="matrix(1 0 0 1 1108.4648 133.9639)" fill="#E2B80B" font-family="'CoolveticaRg-Regular'" font-size="50">SEAHAWK</text>
<rect x="1111" y="163.94" fill="none" width="551.973" height="20.119"/>
<text transform="matrix(1 0 0 1 1111 180.7402)" fill="#FD2E51" font-family="'CoolveticaRg-Regular'" font-size="25">KÖPSTADSÖ GOTHENBURG SWEDEN</text>
<g>
	<rect x="1701.63" y="522" fill="none" width="52.74" height="38"/>
	<text transform="matrix(1 0 0 1 1701.6299 555.5996)" fill="#FD2E51" font-family="'CoolveticaRg-Regular'" font-size="50">6h</text>
</g>
<rect x="1109" y="207" fill="none" width="578" height="354"/>
<text transform="matrix(1 0 0 1 1109 223.7998)"><tspan x="0" y="0" fill="#FFFFFF" font-family="'CoolveticaRg-Regular'" font-size="25">Sunset over the island of Kopstadso Dolor sit amet, </tspan><tspan x="0" y="30" fill="#FFFFFF" font-family="'CoolveticaRg-Regular'" font-size="25">omnis accusata id nam, vel verear dissentiunt effician</tspan><tspan x="549.914" y="30" fill="#FFFFFF" font-family="'CoolveticaRg-Regular'" font-size="25">-</tspan><tspan x="0" y="60" fill="#FFFFFF" font-family="'CoolveticaRg-Regular'" font-size="25">tur id. Id sed esse wisi voluptatum, no his illud tibique </tspan><tspan x="0" y="90" fill="#FFFFFF" font-family="'CoolveticaRg-Regular'" font-size="25">senserit, usu et everti oblique percipit. Nec ea officiis </tspan><tspan x="0" y="120" fill="#FFFFFF" font-family="'CoolveticaRg-Regular'" font-size="25">interesset, in mundi dolore has. Postea assentior qui ex, </tspan><tspan x="0" y="150" fill="#FFFFFF" font-family="'CoolveticaRg-Regular'" font-size="25">affert tantas instructior ad nam, illum lorem.</tspan><tspan x="0" y="210" fill="#FFFFFF" font-family="'CoolveticaRg-Regular'" font-size="25">Dolor sit amet, omnis accusata id nam, vel verear dis</tspan><tspan x="541.99" y="210" fill="#FFFFFF" font-family="'CoolveticaRg-Regular'" font-size="25">-</tspan><tspan x="0" y="240" fill="#FFFFFF" font-family="'CoolveticaRg-Regular'" font-size="25">sentiunt efficiantur id. Id sed esse wisi voluptatum, no </tspan><tspan x="0" y="270" fill="#FFFFFF" font-family="'CoolveticaRg-Regular'" font-size="25">his illud tibique senserit, usu et everti oblique percipit. </tspan><tspan x="0" y="300" fill="#FFFFFF" font-family="'CoolveticaRg-Regular'" font-size="25">Nec ea officiis interesset, in mundi dolore has. Postea </tspan><tspan x="0" y="330" fill="#FFFFFF" font-family="'CoolveticaRg-Regular'" font-size="25">assentior qui ex, affert tantas instructior ad nam.</tspan></text>
<rect x="153" y="579" transform="matrix(0.7071 0.7071 -0.7071 0.7071 472.4346 54.442)" fill="#FFFFFF" width="35" height="37"/>
<polyline fill="none" stroke="#FFFFFF" stroke-width="3" stroke-miterlimit="10" points="1757.5,998 1757.5,596.5 1128.157,596.5 
	1108.5,615.21 1108.5,999 "/>
<polygon fill="#FFFFFF" stroke="#FFFFFF" stroke-miterlimit="10" points="1270.225,596.645 1260.475,606.5 1136.975,606.5 
	1120.5,622.5 1120.5,696 1109.5,707 1109.5,615 1127.829,597.033 "/>
<rect x="1090" y="573" transform="matrix(0.7071 0.7071 -0.7071 0.7071 742.6329 -609.8744)" width="35" height="37"/>
<path fill="none" stroke="#FFFFFF" stroke-width="3" stroke-miterlimit="10" d="M2647.05,63.5H2053.5V981c0,0-0.117,20.5,23.55,21.5
	c28,0,680,0,680,0s16.45-1.5,16.45-14.5s0-799,0-799L2647.05,63.5z"/>
<polygon fill="#FFFFFF" stroke="#FFFFFF" stroke-miterlimit="10" points="2738.975,1001.661 2729.021,1016.5 2098.721,1016.5 
	2089.465,1002.859 "/>
<polygon fill="#FFFFFF" stroke="#FFFFFF" stroke-miterlimit="10" points="2428.8,63.902 2441.55,76.5 2638.05,76.5 2760.5,198.582 
	2760.5,304.066 2773.5,317.5 2773.5,189.627 2646.775,63.325 "/>
<rect x="2089.465" y="100.364" fill="none" width="551.973" height="37.498"/>
<text transform="matrix(1 0 0 1 2089.4648 133.9639)" fill="#E2B80B" font-family="'CoolveticaRg-Regular'" font-size="50">SEAHAWK</text>
<rect x="2092" y="163.94" fill="none" width="551.973" height="20.119"/>
<text transform="matrix(1 0 0 1 2092 180.7402)" fill="#032071" font-family="'CoolveticaRg-Regular'" font-size="25">KÖPSTADSÖ GOTHENBURG SWEDEN</text>
<g>
	<rect x="2682.63" y="522" fill="none" width="52.74" height="38"/>
	<text transform="matrix(1 0 0 1 2682.6299 555.5996)" fill="#032071" font-family="'CoolveticaRg-Regular'" font-size="50">6h</text>
</g>
<rect x="2090" y="207" fill="none" width="578" height="354"/>
<text transform="matrix(1 0 0 1 2090 223.7998)"><tspan x="0" y="0" fill="#FFFFFF" font-family="'CoolveticaRg-Regular'" font-size="25">Sunset over the island of Kopstadso Dolor sit amet, </tspan><tspan x="0" y="30" fill="#FFFFFF" font-family="'CoolveticaRg-Regular'" font-size="25">omnis accusata id nam, vel verear dissentiunt effician</tspan><tspan x="549.914" y="30" fill="#FFFFFF" font-family="'CoolveticaRg-Regular'" font-size="25">-</tspan><tspan x="0" y="60" fill="#FFFFFF" font-family="'CoolveticaRg-Regular'" font-size="25">tur id. Id sed esse wisi voluptatum, no his illud tibique </tspan><tspan x="0" y="90" fill="#FFFFFF" font-family="'CoolveticaRg-Regular'" font-size="25">senserit, usu et everti oblique percipit. Nec ea officiis </tspan><tspan x="0" y="120" fill="#FFFFFF" font-family="'CoolveticaRg-Regular'" font-size="25">interesset, in mundi dolore has. Postea assentior qui ex, </tspan><tspan x="0" y="150" fill="#FFFFFF" font-family="'CoolveticaRg-Regular'" font-size="25">affert tantas instructior ad nam, illum lorem.</tspan><tspan x="0" y="210" fill="#FFFFFF" font-family="'CoolveticaRg-Regular'" font-size="25">Dolor sit amet, omnis accusata id nam, vel verear dis</tspan><tspan x="541.99" y="210" fill="#FFFFFF" font-family="'CoolveticaRg-Regular'" font-size="25">-</tspan><tspan x="0" y="240" fill="#FFFFFF" font-family="'CoolveticaRg-Regular'" font-size="25">sentiunt efficiantur id. Id sed esse wisi voluptatum, no </tspan><tspan x="0" y="270" fill="#FFFFFF" font-family="'CoolveticaRg-Regular'" font-size="25">his illud tibique senserit, usu et everti oblique percipit. </tspan><tspan x="0" y="300" fill="#FFFFFF" font-family="'CoolveticaRg-Regular'" font-size="25">Nec ea officiis interesset, in mundi dolore has. Postea </tspan><tspan x="0" y="330" fill="#FFFFFF" font-family="'CoolveticaRg-Regular'" font-size="25">assentior qui ex, affert tantas instructior ad nam.</tspan></text>
<polyline fill="none" stroke="#FFFFFF" stroke-width="3" stroke-miterlimit="10" points="2738.5,998 2738.5,596.5 2109.157,596.5 
	2089.5,615.21 2089.5,999 "/>
<polygon fill="#FFFFFF" stroke="#FFFFFF" stroke-miterlimit="10" points="2251.225,596.645 2241.475,606.5 2117.975,606.5 
	2101.5,622.5 2101.5,696 2090.5,707 2090.5,615 2108.829,597.033 "/>
<rect x="2071" y="573" transform="matrix(0.7071 0.7071 -0.7071 0.7071 1029.9612 -1303.5461)" fill="#FD2E51" width="35" height="37"/>
<path fill="none" stroke="#032071" stroke-width="3" stroke-miterlimit="10" d="M3617.05,56.5H3023.5V974c0,0-0.117,20.5,23.55,21.5
	c28,0,680,0,680,0s16.45-1.5,16.45-14.5s0-799,0-799L3617.05,56.5z"/>
<polygon fill="#032071" stroke="#032071" stroke-miterlimit="10" points="3708.975,994.661 3699.021,1009.5 3068.721,1009.5 
	3059.465,995.859 "/>
<polygon fill="#032071" stroke="#032071" stroke-miterlimit="10" points="3398.8,56.902 3411.55,69.5 3608.05,69.5 3730.5,191.582 
	3730.5,297.066 3743.5,310.5 3743.5,182.627 3616.775,56.325 "/>
<rect x="3059.465" y="93.364" fill="none" width="551.973" height="37.498"/>
<text transform="matrix(1 0 0 1 3059.4648 126.9639)" fill="#FFFFFF" font-family="'CoolveticaRg-Regular'" font-size="50">SEAHAWK</text>
<g>
	<rect x="3062" y="156.94" fill="none" width="551.973" height="20.119"/>
	<text transform="matrix(1 0 0 1 3062 173.7402)" fill="#E2B80B" font-family="'CoolveticaRg-Regular'" font-size="25">KÖPSTADSÖ GOTHENBURG SWEDEN</text>
</g>
<g>
	<rect x="3652.63" y="515" fill="none" width="52.74" height="38"/>
	<text transform="matrix(1 0 0 1 3652.6299 548.5996)" fill="#E2B80B" font-family="'CoolveticaRg-Regular'" font-size="50">6h</text>
</g>
<g>
	<rect x="3060" y="200" fill="none" width="578" height="354"/>
	<text transform="matrix(1 0 0 1 3060 216.7998)"><tspan x="0" y="0" fill="#032071" font-family="'CoolveticaRg-Regular'" font-size="25">Sunset over the island of Kopstadso Dolor sit amet, </tspan><tspan x="0" y="30" fill="#032071" font-family="'CoolveticaRg-Regular'" font-size="25">omnis accusata id nam, vel verear dissentiunt effician</tspan><tspan x="549.914" y="30" fill="#032071" font-family="'CoolveticaRg-Regular'" font-size="25">-</tspan><tspan x="0" y="60" fill="#032071" font-family="'CoolveticaRg-Regular'" font-size="25">tur id. Id sed esse wisi voluptatum, no his illud tibique </tspan><tspan x="0" y="90" fill="#032071" font-family="'CoolveticaRg-Regular'" font-size="25">senserit, usu et everti oblique percipit. Nec ea officiis </tspan><tspan x="0" y="120" fill="#032071" font-family="'CoolveticaRg-Regular'" font-size="25">interesset, in mundi dolore has. Postea assentior qui ex, </tspan><tspan x="0" y="150" fill="#032071" font-family="'CoolveticaRg-Regular'" font-size="25">affert tantas instructior ad nam, illum lorem.</tspan><tspan x="0" y="210" fill="#032071" font-family="'CoolveticaRg-Regular'" font-size="25">Dolor sit amet, omnis accusata id nam, vel verear dis</tspan><tspan x="541.99" y="210" fill="#032071" font-family="'CoolveticaRg-Regular'" font-size="25">-</tspan><tspan x="0" y="240" fill="#032071" font-family="'CoolveticaRg-Regular'" font-size="25">sentiunt efficiantur id. Id sed esse wisi voluptatum, no </tspan><tspan x="0" y="270" fill="#032071" font-family="'CoolveticaRg-Regular'" font-size="25">his illud tibique senserit, usu et everti oblique percipit. </tspan><tspan x="0" y="300" fill="#032071" font-family="'CoolveticaRg-Regular'" font-size="25">Nec ea officiis interesset, in mundi dolore has. Postea </tspan><tspan x="0" y="330" fill="#032071" font-family="'CoolveticaRg-Regular'" font-size="25">assentior qui ex, affert tantas instructior ad nam.</tspan></text>
</g>
<polyline fill="none" stroke="#032071" stroke-width="3" stroke-miterlimit="10" points="3708.5,993 3708.5,591.5 3079.157,591.5 
	3059.5,610.21 3059.5,994 "/>
<polygon fill="#032071" stroke="#032071" stroke-miterlimit="10" points="3221.225,589.645 3211.475,599.5 3087.975,599.5 
	3071.5,615.5 3071.5,689 3060.5,700 3060.5,608 3078.829,590.033 "/>
<rect x="3041" y="566" transform="matrix(0.7071 0.7071 -0.7071 0.7071 1309.1179 -1991.49)" fill="#FD2E51" width="35" height="37"/>
</svg>
