<?xml version="1.0" encoding="utf-8"?>
<!-- Generator: Adobe Illustrator 16.0.0, SVG Export Plug-In . SVG Version: 6.00 Build 0)  -->
<!DOCTYPE svg PUBLIC "-//W3C//DTD SVG 1.1//EN" "http://www.w3.org/Graphics/SVG/1.1/DTD/svg11.dtd">
<svg version="1.1" id="Layer_1" xmlns="http://www.w3.org/2000/svg" xmlns:xlink="http://www.w3.org/1999/xlink" x="0px" y="0px"
	 width="1190.55px" height="841.89px" viewBox="0 0 1190.55 841.89" enable-background="new 0 0 1190.55 841.89"
	 xml:space="preserve">
<path fill="#FFFFFF" d="M559.041,653.789c-2.217-2.635-447.887-467.27-460.447-480.495c-0.959-1.009-2.881-1.872-2.265-3.422
	c0.664-1.601,2.634-0.862,3.989-0.862c41.622-0.025,83.244,0,124.864-0.099c3.941,0,6.748,1.354,9.408,4.138
	c31.131,32.533,352.109,366.589,358.291,373.117c1.674,1.822,344.398-353.339,363.117-373.117c2.809-2.979,5.859-4.163,9.926-4.138
	c41.273,0.099,82.576,0.074,123.854,0.099c1.525,0,3.742-0.862,4.432,0.887c0.689,1.699-1.502,2.66-2.561,3.768
	c-23.939,24.974-447.986,467.17-460.152,480.125C607.335,653.789,583.177,653.789,559.041,653.789z"/>
</svg>
