<?xml version="1.0" encoding="utf-8"?>
<!-- Generator: Adobe Illustrator 16.0.0, SVG Export Plug-In . SVG Version: 6.00 Build 0)  -->
<!DOCTYPE svg PUBLIC "-//W3C//DTD SVG 1.1//EN" "http://www.w3.org/Graphics/SVG/1.1/DTD/svg11.dtd">
<svg version="1.1" id="Layer_1" xmlns="http://www.w3.org/2000/svg" xmlns:xlink="http://www.w3.org/1999/xlink" x="0px" y="0px"
	 width="1190.551px" height="841.89px" viewBox="0 0 1190.551 841.89" enable-background="new 0 0 1190.551 841.89"
	 xml:space="preserve">
<g>
	<path fill="#FFFFFF" stroke="#FFFFFF" stroke-width="6" stroke-miterlimit="10" d="M45.403,431.341
		c0,30.158,10.609,55.85,31.833,77.07c21.22,21.227,46.913,31.834,77.073,31.834c30.158,0,55.846-10.607,77.07-31.834
		c21.22-21.221,31.833-46.912,31.833-77.07V263.8h-8.377v167.542c0,27.703-9.833,51.387-29.488,71.037
		c-19.66,19.66-43.341,29.49-71.038,29.49c-27.704,0-51.384-9.83-71.041-29.49c-19.66-19.65-29.488-43.334-29.488-71.037"/>
	<path fill="#FFFFFF" stroke="#FFFFFF" stroke-width="6" stroke-miterlimit="10" d="M313.469,431.341V263.8h8.377v167.542
		c0,27.703,9.828,51.387,29.488,71.037c19.654,19.66,43.337,29.49,71.041,29.49c27.694,0,51.377-9.83,71.038-29.49
		c19.656-19.65,29.488-43.334,29.488-71.037V263.8h8.377v167.542c0,30.158-10.613,55.85-31.833,77.07
		c-21.225,21.227-46.912,31.834-77.07,31.834c-30.158,0-55.85-10.607-77.07-31.834C324.079,487.191,313.469,461.5,313.469,431.341z"
		/>
	<path fill="#FFFFFF" stroke="#FFFFFF" stroke-width="6" stroke-miterlimit="10" d="M598.288,275.192v265.053h-8.377V263.8h10.725
		l192.342,265.053V263.8h8.377v276.446H790.63L598.288,275.192z"/>
	<path fill="#FFFFFF" stroke="#FFFFFF" stroke-width="6" stroke-miterlimit="10" d="M1102.257,298.314
		c28.594,28.598,42.892,63.112,42.892,103.541c0,40.666-14.298,75.287-42.892,103.878c-28.598,28.6-63.11,42.893-103.543,42.893
		c-40.66,0-75.284-14.293-103.877-42.893c-28.599-28.592-42.89-63.213-42.89-103.878c0-40.429,14.291-74.943,42.89-103.541
		c28.593-28.594,63.217-42.89,103.877-42.89C1039.146,255.425,1073.659,269.721,1102.257,298.314z M998.714,263.802
		c-38.201,0-70.818,13.517-97.845,40.542c-27.035,27.034-40.545,59.537-40.545,97.509c0,38.203,13.513,70.82,40.545,97.845
		c27.026,27.035,59.644,40.547,97.845,40.547c37.974,0,70.479-13.512,97.509-40.547c27.027-27.025,40.546-59.643,40.546-97.845
		c0-37.973-13.521-70.478-40.546-97.509C1069.193,277.317,1036.687,263.802,998.714,263.802z"/>
</g>
</svg>
